<svg width="80" height="60" viewBox="0 0 80 60" fill="none" xmlns="http://www.w3.org/2000/svg">
<g id="Frame 112">
<g id="Storefront">
<path id="Vector" d="M21.25 32.716V48.75C21.25 49.2473 21.4475 49.7242 21.7992 50.0758C22.1508 50.4275 22.6277 50.625 23.125 50.625H56.875C57.3723 50.625 57.8492 50.4275 58.2008 50.0758C58.5525 49.7242 58.75 49.2473 58.75 48.75V32.7163" stroke="#3BB4BD" stroke-width="2" stroke-linecap="round" stroke-linejoin="round"/>
<path id="Vector_2" d="M22.6643 9.375H57.3357C57.7431 9.375 58.1395 9.50773 58.4648 9.7531C58.7901 9.99847 59.0266 10.3431 59.1385 10.7349L62.5 22.5H17.5L20.8615 10.7349C20.9734 10.3431 21.2099 9.99847 21.5352 9.7531C21.8605 9.50773 22.2569 9.375 22.6643 9.375Z" stroke="#3BB4BD" stroke-width="2" stroke-linecap="round" stroke-linejoin="round"/>
<path id="Vector_3" d="M32.5 22.5V26.25C32.5 28.2391 31.7098 30.1468 30.3033 31.5533C28.8968 32.9598 26.9891 33.75 25 33.75C23.0109 33.75 21.1032 32.9598 19.6967 31.5533C18.2902 30.1468 17.5 28.2391 17.5 26.25V22.5" stroke="#3BB4BD" stroke-width="2" stroke-linecap="round" stroke-linejoin="round"/>
<path id="Vector_4" d="M47.5 22.5V26.25C47.5 28.2391 46.7098 30.1468 45.3033 31.5533C43.8968 32.9598 41.9891 33.75 40 33.75C38.0109 33.75 36.1032 32.9598 34.6967 31.5533C33.2902 30.1468 32.5 28.2391 32.5 26.25V22.5" stroke="#3BB4BD" stroke-width="2" stroke-linecap="round" stroke-linejoin="round"/>
<path id="Vector_5" d="M62.5 22.5V26.25C62.5 28.2391 61.7098 30.1468 60.3033 31.5533C58.8968 32.9598 56.9891 33.75 55 33.75C53.0109 33.75 51.1032 32.9598 49.6967 31.5533C48.2902 30.1468 47.5 28.2391 47.5 26.25V22.5" stroke="#3BB4BD" stroke-width="2" stroke-linecap="round" stroke-linejoin="round"/>
</g>
</g>
</svg>
