<svg width="80" height="60" viewBox="0 0 80 60" fill="none" xmlns="http://www.w3.org/2000/svg">
<g id="Frame 112">
<g id="Package">
<path id="Vector" d="M40.2234 30L39.9746 54.0962" stroke="#3BB4BD" stroke-width="2" stroke-linecap="round" stroke-linejoin="round"/>
<path id="Vector_2" d="M61.5371 41.0935V18.9065C61.5371 18.5745 61.4489 18.2484 61.2816 17.9616C61.1143 17.6748 60.8738 17.4376 60.5847 17.2742L40.8972 6.14647C40.6158 5.98738 40.2979 5.90378 39.9746 5.90378C39.6513 5.90378 39.3335 5.98738 39.052 6.14647L19.3645 17.2742C19.0754 17.4376 18.8349 17.6748 18.6676 17.9616C18.5003 18.2484 18.4121 18.5745 18.4121 18.9065V41.0935C18.4121 41.4255 18.5003 41.7516 18.6676 42.0384C18.8349 42.3252 19.0754 42.5624 19.3645 42.7258L39.052 53.8535C39.3335 54.0126 39.6513 54.0962 39.9746 54.0962C40.2979 54.0962 40.6158 54.0126 40.8972 53.8535L60.5847 42.7258C60.8738 42.5624 61.1143 42.3252 61.2816 42.0384C61.4489 41.7516 61.5371 41.4255 61.5371 41.0935V41.0935Z" stroke="#3BB4BD" stroke-width="2" stroke-linecap="round" stroke-linejoin="round"/>
<path id="Vector_3" d="M61.2798 17.9595L40.2228 30L18.6699 17.9569" stroke="#3BB4BD" stroke-width="2" stroke-linecap="round" stroke-linejoin="round"/>
<path id="Vector_4" d="M51.4892 34.8073V23.5573L29.7441 11.4068" stroke="#3BB4BD" stroke-width="2" stroke-linecap="round" stroke-linejoin="round"/>
</g>
</g>
</svg>
