<svg width="80" height="60" viewBox="0 0 80 60" fill="none" xmlns="http://www.w3.org/2000/svg">
<g id="Frame 112">
<g id="Truck">
<path id="Vector" d="M66.25 28.125H51.25V18.75H61.2306C61.6053 18.75 61.9714 18.8623 62.2817 19.0724C62.592 19.2825 62.8323 19.5807 62.9715 19.9286L66.25 28.125Z" stroke="#3BB4BD" stroke-width="2" stroke-linecap="round" stroke-linejoin="round"/>
<path id="Vector_2" d="M13.75 33.75H51.25" stroke="#3BB4BD" stroke-width="2" stroke-linecap="round" stroke-linejoin="round"/>
<path id="Vector_3" d="M54.0625 50.625C57.1691 50.625 59.6875 48.1066 59.6875 45C59.6875 41.8934 57.1691 39.375 54.0625 39.375C50.9559 39.375 48.4375 41.8934 48.4375 45C48.4375 48.1066 50.9559 50.625 54.0625 50.625Z" stroke="#3BB4BD" stroke-width="2" stroke-miterlimit="10"/>
<path id="Vector_4" d="M25.9375 50.625C29.0441 50.625 31.5625 48.1066 31.5625 45C31.5625 41.8934 29.0441 39.375 25.9375 39.375C22.8309 39.375 20.3125 41.8934 20.3125 45C20.3125 48.1066 22.8309 50.625 25.9375 50.625Z" stroke="#3BB4BD" stroke-width="2" stroke-miterlimit="10"/>
<path id="Vector_5" d="M48.4375 45H31.5625" stroke="#3BB4BD" stroke-width="2" stroke-linecap="round" stroke-linejoin="round"/>
<path id="Vector_6" d="M20.3125 45H15.625C15.1277 45 14.6508 44.8025 14.2992 44.4508C13.9475 44.0992 13.75 43.6223 13.75 43.125V16.875C13.75 16.3777 13.9475 15.9008 14.2992 15.5492C14.6508 15.1975 15.1277 15 15.625 15H51.25V40.1285" stroke="#3BB4BD" stroke-width="2" stroke-linecap="round" stroke-linejoin="round"/>
<path id="Vector_7" d="M51.25 40.1285V28.125H66.25V43.125C66.25 43.6223 66.0525 44.0992 65.7008 44.4508C65.3492 44.8025 64.8723 45 64.375 45H59.6875" stroke="#3BB4BD" stroke-width="2" stroke-linecap="round" stroke-linejoin="round"/>
</g>
</g>
</svg>
