<svg width="62" height="32" viewBox="0 0 62 32" fill="none" xmlns="http://www.w3.org/2000/svg">
<g id="fi:shopping-cart">
<path id="Vector" d="M38 28.5C38.6904 28.5 39.25 27.9404 39.25 27.25C39.25 26.5596 38.6904 26 38 26C37.3096 26 36.75 26.5596 36.75 27.25C36.75 27.9404 37.3096 28.5 38 28.5Z" fill="#315BB3" stroke="#315BB3" stroke-width="3" stroke-linecap="round" stroke-linejoin="round"/>
<path id="Vector_2" d="M24.25 28.5C24.9404 28.5 25.5 27.9404 25.5 27.25C25.5 26.5596 24.9404 26 24.25 26C23.5596 26 23 26.5596 23 27.25C23 27.9404 23.5596 28.5 24.25 28.5Z" fill="#315BB3" stroke="#315BB3" stroke-width="3" stroke-linecap="round" stroke-linejoin="round"/>
<path id="Vector_3" d="M14.25 2.25H19.25L22.6 18.9875C22.7143 19.563 23.0274 20.0799 23.4844 20.4479C23.9415 20.8158 24.5134 21.0112 25.1 21H37.25C37.8366 21.0112 38.4085 20.8158 38.8656 20.4479C39.3226 20.0799 39.6357 19.563 39.75 18.9875L41.75 8.5H20.5" stroke="#315BB3" stroke-width="3" stroke-linecap="round" stroke-linejoin="round"/>
</g>
</svg>
