<svg width="80" height="60" viewBox="0 0 80 60" fill="none" xmlns="http://www.w3.org/2000/svg">
<g id="Frame 112">
<g id="Intersect">
<path id="Vector" d="M32.5 39.375C41.8198 39.375 49.375 31.8198 49.375 22.5C49.375 13.1802 41.8198 5.625 32.5 5.625C23.1802 5.625 15.625 13.1802 15.625 22.5C15.625 31.8198 23.1802 39.375 32.5 39.375Z" stroke="#3BB4BD" stroke-width="2" stroke-linecap="round" stroke-linejoin="round"/>
<path id="Vector_2" d="M47.5 54.375C56.8198 54.375 64.375 46.8198 64.375 37.5C64.375 28.1802 56.8198 20.625 47.5 20.625C38.1802 20.625 30.625 28.1802 30.625 37.5C30.625 46.8198 38.1802 54.375 47.5 54.375Z" stroke="#3BB4BD" stroke-width="2" stroke-linecap="round" stroke-linejoin="round"/>
<path id="Vector_3" d="M38.7148 23.09L46.9104 31.2855" stroke="#3BB4BD" stroke-width="2" stroke-linecap="round" stroke-linejoin="round"/>
<path id="Vector_4" d="M33.0898 28.7146L41.2854 36.9101" stroke="#3BB4BD" stroke-width="2" stroke-linecap="round" stroke-linejoin="round"/>
</g>
</g>
</svg>
