<svg width="80" height="60" viewBox="0 0 80 60" fill="none" xmlns="http://www.w3.org/2000/svg">
<g id="Frame 112">
<g id="Vector">
<path d="M3.08097 36.7451C8.22383 45.6528 22.1213 46.8667 22.1213 46.8667C22.1213 46.8667 28.0187 34.2242 22.8758 25.3165C21.3603 22.6915 18.8641 20.7761 15.9363 19.9916C13.0086 19.2071 9.88908 19.6178 7.26412 21.1334C4.63916 22.6489 2.72375 25.1451 1.93925 28.0729C1.15476 31.0006 1.56545 34.1201 3.08097 36.7451Z" fill="white"/>
<path d="M28.571 21.4285C28.571 31.7143 39.9996 39.7143 39.9996 39.7143C39.9996 39.7143 51.4281 31.7143 51.4281 21.4285C51.4281 18.3975 50.2241 15.4906 48.0808 13.3473C45.9375 11.204 43.0306 9.99997 39.9996 9.99997C36.9685 9.99997 34.0616 11.204 31.9183 13.3473C29.7751 15.4906 28.571 18.3975 28.571 21.4285Z" fill="white"/>
<path d="M76.59 36.7451C71.4472 45.6528 57.5497 46.8667 57.5497 46.8667C57.5497 46.8667 51.6523 34.2242 56.7952 25.3165C58.3107 22.6915 60.8069 20.7761 63.7347 19.9916C66.6624 19.2071 69.7819 19.6178 72.4069 21.1334C75.0319 22.6489 76.9473 25.1451 77.7318 28.0729C78.5162 31.0006 78.1056 34.1201 76.59 36.7451Z" fill="white"/>
<path d="M7.03994 34.4594C6.13063 32.8844 5.88422 31.0127 6.35491 29.256C6.82561 27.4994 7.97485 26.0016 9.54983 25.0923M72.6311 34.4594C73.5404 32.8844 73.7868 31.0127 73.3161 29.256C72.8454 27.4994 71.6962 26.0016 70.1212 25.0923M33.1424 21.4285C33.1424 19.6099 33.8649 17.8658 35.1508 16.5798C36.4368 15.2938 38.1809 14.5714 39.9996 14.5714M3.08097 36.7451C8.22383 45.6528 22.1213 46.8667 22.1213 46.8667C22.1213 46.8667 28.0187 34.2242 22.8758 25.3165C21.3603 22.6915 18.8641 20.7761 15.9363 19.9916C13.0086 19.2071 9.88908 19.6178 7.26412 21.1334C4.63916 22.6489 2.72375 25.1451 1.93925 28.0729C1.15476 31.0006 1.56545 34.1201 3.08097 36.7451ZM22.4062 49.646C22.0106 48.9608 22.6927 47.8564 22.6927 47.8564C22.6927 47.8564 23.9901 47.8179 24.3857 48.5031C24.5023 48.7051 24.5098 48.9589 24.4067 49.2089C24.3035 49.4588 24.098 49.6844 23.8356 49.8359C23.5731 49.9875 23.275 50.0526 23.007 50.017C22.7389 49.9814 22.5228 49.8479 22.4062 49.646ZM76.59 36.7451C71.4472 45.6528 57.5497 46.8667 57.5497 46.8667C57.5497 46.8667 51.6523 34.2242 56.7952 25.3165C58.3107 22.6915 60.8069 20.7761 63.7347 19.9916C66.6624 19.2071 69.7819 19.6178 72.4069 21.1334C75.0319 22.6489 76.9473 25.1451 77.7318 28.0729C78.5162 31.0006 78.1056 34.1201 76.59 36.7451ZM57.2648 49.646C57.6604 48.9608 56.9783 47.8564 56.9783 47.8564C56.9783 47.8564 55.6809 47.8179 55.2853 48.5031C55.1687 48.7051 55.1612 48.9589 55.2643 49.2089C55.3675 49.4588 55.573 49.6844 55.8355 49.8359C56.098 49.9875 56.396 50.0526 56.6641 50.017C56.9321 49.9814 57.1482 49.8479 57.2648 49.646ZM28.571 21.4285C28.571 31.7143 39.9996 39.7143 39.9996 39.7143C39.9996 39.7143 51.4281 31.7143 51.4281 21.4285C51.4281 18.3975 50.2241 15.4906 48.0808 13.3473C45.9375 11.204 43.0306 9.99997 39.9996 9.99997C36.9685 9.99997 34.0616 11.204 31.9183 13.3473C29.7751 15.4906 28.571 18.3975 28.571 21.4285ZM38.8567 42.2637C38.8567 41.4725 39.9996 40.8571 39.9996 40.8571C39.9996 40.8571 41.1424 41.4725 41.1424 42.2637C41.1424 42.4969 41.022 42.7205 40.8077 42.8853C40.5934 43.0502 40.3027 43.1428 39.9996 43.1428C39.6965 43.1428 39.4058 43.0502 39.1914 42.8853C38.9771 42.7205 38.8567 42.4969 38.8567 42.2637Z" stroke="#3BB4BD" stroke-width="2" stroke-linecap="round" stroke-linejoin="round"/>
</g>
</g>
</svg>
