<svg width="128" height="99" viewBox="0 0 128 99" fill="none" xmlns="http://www.w3.org/2000/svg">
<g id="Mastercard-logo" clip-path="url(#clip0_244_6922)">
<path id="XMLID_1775_" d="M23.3661 98.7831V92.2129C23.3661 89.6996 21.8352 88.0539 19.2071 88.0539C17.8931 88.0539 16.4642 88.4877 15.4819 89.9165C14.7164 88.7173 13.6192 88.0539 11.9735 88.0539C10.8763 88.0539 9.77915 88.3856 8.91163 89.5848V88.2708H6.61523V98.7831H8.91163V92.9784C8.91163 91.1157 9.89397 90.2355 11.4249 90.2355C12.9558 90.2355 13.7213 91.2178 13.7213 92.9784V98.7831H16.0177V92.9784C16.0177 91.1157 17.1148 90.2355 18.531 90.2355C20.0619 90.2355 20.8273 91.2178 20.8273 92.9784V98.7831H23.3661ZM57.4293 88.2708H53.704V85.0941H51.4076V88.2708H49.3281V90.3503H51.4076V95.1727C51.4076 97.5839 52.39 99 55.0181 99C56.0004 99 57.0976 98.6683 57.863 98.2346L57.1996 96.2571C56.5362 96.6909 55.7708 96.8057 55.2222 96.8057C54.125 96.8057 53.6913 96.1423 53.6913 95.0579V90.3503H57.4165V88.2708H57.4293ZM76.9231 88.0411C75.6091 88.0411 74.7288 88.7045 74.1802 89.5721V88.258H71.8838V98.7704H74.1802V92.8508C74.1802 91.103 74.9456 90.1079 76.3745 90.1079C76.8083 90.1079 77.3569 90.2227 77.8034 90.3248L78.4668 88.1304C78.0075 88.0411 77.3569 88.0411 76.9231 88.0411ZM47.4655 89.1383C46.3683 88.3728 44.8374 88.0411 43.1917 88.0411C40.5636 88.0411 38.8158 89.3552 38.8158 91.4347C38.8158 93.1825 40.1298 94.1776 42.4262 94.4965L43.5234 94.6114C44.7226 94.8282 45.386 95.1599 45.386 95.7085C45.386 96.474 44.5057 97.0226 42.9748 97.0226C41.4438 97.0226 40.2319 96.474 39.4664 95.9254L38.3692 97.6732C39.5685 98.5535 41.2142 98.9873 42.86 98.9873C45.9218 98.9873 47.6824 97.5584 47.6824 95.5937C47.6824 93.7311 46.2535 92.7487 44.0719 92.417L42.9748 92.3022C41.9924 92.1874 41.227 91.9705 41.227 91.3199C41.227 90.5544 41.9924 90.1206 43.2044 90.1206C44.5185 90.1206 45.8325 90.6692 46.4959 91.0009L47.4655 89.1383ZM108.562 88.0411C107.248 88.0411 106.368 88.7045 105.819 89.5721V88.258H103.523V98.7704H105.819V92.8508C105.819 91.103 106.585 90.1079 108.014 90.1079C108.447 90.1079 108.996 90.2227 109.443 90.3248L110.106 88.156C109.659 88.0411 109.009 88.0411 108.562 88.0411ZM79.2195 93.527C79.2195 96.7036 81.4138 99 84.8074 99C86.3383 99 87.4355 98.6683 88.5326 97.8008L87.4355 95.9382C86.5552 96.6016 85.6877 96.9205 84.6926 96.9205C82.8299 96.9205 81.5159 95.6065 81.5159 93.527C81.5159 91.5495 82.8299 90.2355 84.6926 90.1334C85.6749 90.1334 86.5552 90.4651 87.4355 91.1157L88.5326 89.2531C87.4355 88.3728 86.3383 88.0539 84.8074 88.0539C81.4138 88.0411 79.2195 90.3503 79.2195 93.527ZM100.461 93.527V88.2708H98.1647V89.5848C97.3993 88.6025 96.3021 88.0539 94.8732 88.0539C91.9134 88.0539 89.617 90.3503 89.617 93.527C89.617 96.7036 91.9134 99 94.8732 99C96.4042 99 97.5013 98.4514 98.1647 97.4691V98.7831H100.461V93.527ZM92.0283 93.527C92.0283 91.6643 93.2275 90.1334 95.2049 90.1334C97.0676 90.1334 98.3816 91.5623 98.3816 93.527C98.3816 95.3896 97.0676 96.9205 95.2049 96.9205C93.2402 96.8057 92.0283 95.3768 92.0283 93.527ZM64.5481 88.0411C61.4862 88.0411 59.2919 90.2355 59.2919 93.5142C59.2919 96.8057 61.4862 98.9873 64.6629 98.9873C66.1938 98.9873 67.7248 98.5535 68.9368 97.5584L67.8396 95.9127C66.9593 96.5761 65.8621 97.0098 64.7777 97.0098C63.3489 97.0098 61.9328 96.3464 61.6011 94.4965H69.3705C69.3705 94.1648 69.3705 93.948 69.3705 93.6163C69.4726 90.2355 67.4951 88.0411 64.5481 88.0411ZM64.5481 90.0186C65.977 90.0186 66.9593 90.8989 67.1762 92.5319H61.7031C61.92 91.1157 62.9023 90.0186 64.5481 90.0186ZM121.601 93.527V84.1118H119.304V89.5848C118.539 88.6025 117.442 88.0539 116.013 88.0539C113.053 88.0539 110.757 90.3503 110.757 93.527C110.757 96.7036 113.053 99 116.013 99C117.544 99 118.641 98.4514 119.304 97.4691V98.7831H121.601V93.527ZM113.168 93.527C113.168 91.6643 114.367 90.1334 116.344 90.1334C118.207 90.1334 119.521 91.5623 119.521 93.527C119.521 95.3896 118.207 96.9205 116.344 96.9205C114.367 96.8057 113.168 95.3768 113.168 93.527ZM36.2897 93.527V88.2708H33.9933V89.5848C33.2279 88.6025 32.1307 88.0539 30.7018 88.0539C27.742 88.0539 25.4456 90.3503 25.4456 93.527C25.4456 96.7036 27.742 99 30.7018 99C32.2328 99 33.3299 98.4514 33.9933 97.4691V98.7831H36.2897V93.527ZM27.7548 93.527C27.7548 91.6643 28.954 90.1334 30.9315 90.1334C32.7941 90.1334 34.1081 91.5623 34.1081 93.527C34.1081 95.3896 32.7941 96.9205 30.9315 96.9205C28.954 96.8057 27.7548 95.3768 27.7548 93.527Z" fill="black"/>
<g id="Group">
<path id="rect19" d="M81.1961 8.43286H46.6992V70.4099H81.1961V8.43286Z" fill="#FF5A00"/>
<path id="XMLID_330_" d="M48.9963 39.4214C48.9963 26.8295 54.9158 15.6537 63.9993 8.43286C57.3143 3.17668 48.8814 0 39.6831 0C17.8929 0 0.261719 17.6312 0.261719 39.4214C0.261719 61.2116 17.8929 78.8428 39.6831 78.8428C48.8814 78.8428 57.3143 75.6661 63.9993 70.4099C54.9031 63.2911 48.9963 52.0133 48.9963 39.4214Z" fill="#EB001B"/>
<path id="path22" d="M127.738 39.4214C127.738 61.2116 110.106 78.8428 88.3162 78.8428C79.1179 78.8428 70.6851 75.6661 64 70.4099C73.1983 63.1763 79.0031 52.0133 79.0031 39.4214C79.0031 26.8295 73.0835 15.6537 64 8.43286C70.6723 3.17668 79.1052 0 88.3035 0C110.106 0 127.738 17.746 127.738 39.4214Z" fill="#F79E1B"/>
</g>
</g>
<defs>
<clipPath id="clip0_244_6922">
<rect width="127.475" height="99" fill="white" transform="translate(0.261719)"/>
</clipPath>
</defs>
</svg>
