<svg width="246" height="99" viewBox="0 0 246 99" fill="none" xmlns="http://www.w3.org/2000/svg">
<g id="Mir-logo.SVG">
<g id="sim">
<g id="mir-logo">
<g id="Group-5">
<path id="Combined-Shape" fill-rule="evenodd" clip-rule="evenodd" d="M60.7185 28.2435C62.1782 28.2348 66.5163 27.8441 68.3539 34.0458C69.5917 38.2234 71.5634 45.0664 74.2691 54.575H75.371C78.2726 44.5504 80.2659 37.7074 81.3508 34.0458C83.2075 27.7795 87.8492 28.2437 89.7059 28.2437L104.031 28.2437V72.8043H89.4305V46.544H88.4514L80.3125 72.8043H69.3276L61.1887 46.5245H60.2096V72.8043H45.6094V28.2437L60.7185 28.2435ZM124.996 28.2437V54.5235H126.161L136.061 32.9138C137.983 28.6134 142.079 28.2437 142.079 28.2437H156.208V72.8043H141.303V46.5245H140.138L130.432 68.1342C128.51 72.4152 124.22 72.8043 124.22 72.8043H110.091V28.2437H124.996ZM207.727 49.4192C205.648 55.3109 199.119 59.5304 191.89 59.5304H176.259V72.8043H162.085V49.4192H207.727Z" fill="#0F754E"/>
<path id="path24" fill-rule="evenodd" clip-rule="evenodd" d="M192.574 28.2437H161.342C162.085 38.1644 170.629 46.6572 179.473 46.6572H208.712C210.399 38.4119 204.591 28.2437 192.574 28.2437Z" fill="url(#paint0_linear_244_6935)"/>
</g>
</g>
</g>
</g>
<defs>
<linearGradient id="paint0_linear_244_6935" x1="208.999" y1="39.8266" x2="161.342" y2="39.8266" gradientUnits="userSpaceOnUse">
<stop stop-color="#1F5CD7"/>
<stop offset="1" stop-color="#02AEFF"/>
</linearGradient>
</defs>
</svg>
