<svg width="246" height="99" viewBox="0 0 246 99" fill="none" xmlns="http://www.w3.org/2000/svg">
<g id="Visa_Inc._logo">
<g id="g4158">
<path id="polygon9" d="M113.266 72.7514H101.439L108.837 27.011H120.663L113.266 72.7514Z" fill="#00579F"/>
<path id="path11" d="M156.14 28.1293C153.807 27.2038 150.107 26.1819 145.532 26.1819C133.852 26.1819 125.628 32.4101 125.577 41.3145C125.48 47.8841 131.466 51.533 135.943 53.7236C140.518 55.9619 142.074 57.4229 142.074 59.4181C142.027 62.4824 138.376 63.8949 134.971 63.8949C130.249 63.8949 127.719 63.1667 123.874 61.4619L122.317 60.731L120.662 70.9988C123.436 72.2625 128.547 73.3839 133.852 73.4331C146.262 73.4331 154.341 67.3013 154.437 57.8123C154.484 52.6053 151.324 48.6156 144.51 45.3553C140.373 43.2625 137.84 41.8513 137.84 39.7099C137.888 37.7632 139.982 35.7693 144.652 35.7693C148.497 35.6716 151.322 36.5958 153.462 37.5207L154.531 38.0064L156.14 28.1293Z" fill="#00579F"/>
<path id="path13" d="M171.861 56.5472C172.835 53.9195 176.583 43.7494 176.583 43.7494C176.534 43.8471 177.555 41.0732 178.139 39.3703L178.965 43.3116C178.965 43.3116 181.205 54.2603 181.691 56.5472C179.843 56.5472 174.197 56.5472 171.861 56.5472ZM186.46 27.011H177.312C174.49 27.011 172.347 27.8376 171.13 30.8061L153.562 72.7507H165.972C165.972 72.7507 168.015 67.1053 168.454 65.8894C169.816 65.8894 181.888 65.8894 183.639 65.8894C183.979 67.4953 185.051 72.7507 185.051 72.7507H196.001L186.46 27.011Z" fill="#00579F"/>
<path id="path15" d="M91.5612 27.011L79.9786 58.2016L78.713 51.8758C76.5716 44.5766 69.8558 36.6462 62.3613 32.703L72.9705 72.7029H85.4773L104.067 27.011H91.5612Z" fill="#00579F"/>
<path id="path17" d="M69.2232 27.011H50.1947L50 27.9352C64.8434 31.731 74.6739 40.8805 78.7129 51.8777L74.5763 30.8559C73.8953 27.9346 71.8024 27.1074 69.2232 27.011Z" fill="#FAA61A"/>
</g>
</g>
</svg>
